<mxfile host="app.diagrams.net" modified="2023-04-27T11:13:28.221Z" agent="Mozilla/5.0 (X11; Ubuntu; Linux x86_64; rv:109.0) Gecko/20100101 Firefox/112.0" etag="0F1DSopVyVMEl_GFHhUu" version="21.2.1" type="device">
  <diagram name="Page-1" id="DTLzjxHz0AVBki_nHCtA">
    <mxGraphModel dx="1434" dy="1963" grid="1" gridSize="10" guides="1" tooltips="1" connect="1" arrows="1" fold="1" page="1" pageScale="1" pageWidth="827" pageHeight="1169" math="0" shadow="0">
      <root>
        <mxCell id="0" />
        <mxCell id="1" parent="0" />
        <mxCell id="yGFAPYOFmnMAALgUmyOV-6" value="&lt;div&gt;Musiques&lt;/div&gt;" style="swimlane;fontStyle=0;childLayout=stackLayout;horizontal=1;startSize=30;horizontalStack=0;resizeParent=1;resizeParentMax=0;resizeLast=0;collapsible=1;marginBottom=0;whiteSpace=wrap;html=1;" parent="1" vertex="1">
          <mxGeometry x="130" y="-1060" width="140" height="210" as="geometry" />
        </mxCell>
        <mxCell id="yGFAPYOFmnMAALgUmyOV-7" value="id" style="text;strokeColor=none;fillColor=none;align=left;verticalAlign=middle;spacingLeft=4;spacingRight=4;overflow=hidden;points=[[0,0.5],[1,0.5]];portConstraint=eastwest;rotatable=0;whiteSpace=wrap;html=1;" parent="yGFAPYOFmnMAALgUmyOV-6" vertex="1">
          <mxGeometry y="30" width="140" height="30" as="geometry" />
        </mxCell>
        <mxCell id="yGFAPYOFmnMAALgUmyOV-8" value="type (mp3 wav)" style="text;strokeColor=none;fillColor=none;align=left;verticalAlign=middle;spacingLeft=4;spacingRight=4;overflow=hidden;points=[[0,0.5],[1,0.5]];portConstraint=eastwest;rotatable=0;whiteSpace=wrap;html=1;" parent="yGFAPYOFmnMAALgUmyOV-6" vertex="1">
          <mxGeometry y="60" width="140" height="30" as="geometry" />
        </mxCell>
        <mxCell id="yGFAPYOFmnMAALgUmyOV-9" value="&lt;div&gt;Name&lt;/div&gt;" style="text;strokeColor=none;fillColor=none;align=left;verticalAlign=middle;spacingLeft=4;spacingRight=4;overflow=hidden;points=[[0,0.5],[1,0.5]];portConstraint=eastwest;rotatable=0;whiteSpace=wrap;html=1;" parent="yGFAPYOFmnMAALgUmyOV-6" vertex="1">
          <mxGeometry y="90" width="140" height="30" as="geometry" />
        </mxCell>
        <mxCell id="yGFAPYOFmnMAALgUmyOV-26" value="Author" style="text;strokeColor=none;fillColor=none;align=left;verticalAlign=middle;spacingLeft=4;spacingRight=4;overflow=hidden;points=[[0,0.5],[1,0.5]];portConstraint=eastwest;rotatable=0;whiteSpace=wrap;html=1;" parent="yGFAPYOFmnMAALgUmyOV-6" vertex="1">
          <mxGeometry y="120" width="140" height="30" as="geometry" />
        </mxCell>
        <mxCell id="yGFAPYOFmnMAALgUmyOV-35" value="Date" style="text;strokeColor=none;fillColor=none;align=left;verticalAlign=middle;spacingLeft=4;spacingRight=4;overflow=hidden;points=[[0,0.5],[1,0.5]];portConstraint=eastwest;rotatable=0;whiteSpace=wrap;html=1;" parent="yGFAPYOFmnMAALgUmyOV-6" vertex="1">
          <mxGeometry y="150" width="140" height="30" as="geometry" />
        </mxCell>
        <mxCell id="yGFAPYOFmnMAALgUmyOV-36" value="Images" style="text;strokeColor=none;fillColor=none;align=left;verticalAlign=middle;spacingLeft=4;spacingRight=4;overflow=hidden;points=[[0,0.5],[1,0.5]];portConstraint=eastwest;rotatable=0;whiteSpace=wrap;html=1;" parent="yGFAPYOFmnMAALgUmyOV-6" vertex="1">
          <mxGeometry y="180" width="140" height="30" as="geometry" />
        </mxCell>
        <mxCell id="yGFAPYOFmnMAALgUmyOV-10" value="Albums" style="swimlane;fontStyle=0;childLayout=stackLayout;horizontal=1;startSize=30;horizontalStack=0;resizeParent=1;resizeParentMax=0;resizeLast=0;collapsible=1;marginBottom=0;whiteSpace=wrap;html=1;" parent="1" vertex="1">
          <mxGeometry x="354" y="-910" width="140" height="150" as="geometry" />
        </mxCell>
        <mxCell id="yGFAPYOFmnMAALgUmyOV-11" value="id" style="text;strokeColor=none;fillColor=none;align=left;verticalAlign=middle;spacingLeft=4;spacingRight=4;overflow=hidden;points=[[0,0.5],[1,0.5]];portConstraint=eastwest;rotatable=0;whiteSpace=wrap;html=1;" parent="yGFAPYOFmnMAALgUmyOV-10" vertex="1">
          <mxGeometry y="30" width="140" height="30" as="geometry" />
        </mxCell>
        <mxCell id="yGFAPYOFmnMAALgUmyOV-12" value="Name" style="text;strokeColor=none;fillColor=none;align=left;verticalAlign=middle;spacingLeft=4;spacingRight=4;overflow=hidden;points=[[0,0.5],[1,0.5]];portConstraint=eastwest;rotatable=0;whiteSpace=wrap;html=1;" parent="yGFAPYOFmnMAALgUmyOV-10" vertex="1">
          <mxGeometry y="60" width="140" height="30" as="geometry" />
        </mxCell>
        <mxCell id="yGFAPYOFmnMAALgUmyOV-13" value="&lt;div&gt;Author&lt;/div&gt;" style="text;strokeColor=none;fillColor=none;align=left;verticalAlign=middle;spacingLeft=4;spacingRight=4;overflow=hidden;points=[[0,0.5],[1,0.5]];portConstraint=eastwest;rotatable=0;whiteSpace=wrap;html=1;" parent="yGFAPYOFmnMAALgUmyOV-10" vertex="1">
          <mxGeometry y="90" width="140" height="30" as="geometry" />
        </mxCell>
        <mxCell id="yGFAPYOFmnMAALgUmyOV-32" value="Date" style="text;strokeColor=none;fillColor=none;align=left;verticalAlign=middle;spacingLeft=4;spacingRight=4;overflow=hidden;points=[[0,0.5],[1,0.5]];portConstraint=eastwest;rotatable=0;whiteSpace=wrap;html=1;" parent="yGFAPYOFmnMAALgUmyOV-10" vertex="1">
          <mxGeometry y="120" width="140" height="30" as="geometry" />
        </mxCell>
        <mxCell id="yGFAPYOFmnMAALgUmyOV-14" value="Playlists" style="swimlane;fontStyle=0;childLayout=stackLayout;horizontal=1;startSize=30;horizontalStack=0;resizeParent=1;resizeParentMax=0;resizeLast=0;collapsible=1;marginBottom=0;whiteSpace=wrap;html=1;" parent="1" vertex="1">
          <mxGeometry x="550" y="-1070" width="140" height="180" as="geometry" />
        </mxCell>
        <mxCell id="yGFAPYOFmnMAALgUmyOV-15" value="Id" style="text;strokeColor=none;fillColor=none;align=left;verticalAlign=middle;spacingLeft=4;spacingRight=4;overflow=hidden;points=[[0,0.5],[1,0.5]];portConstraint=eastwest;rotatable=0;whiteSpace=wrap;html=1;" parent="yGFAPYOFmnMAALgUmyOV-14" vertex="1">
          <mxGeometry y="30" width="140" height="30" as="geometry" />
        </mxCell>
        <mxCell id="yGFAPYOFmnMAALgUmyOV-16" value="Name" style="text;strokeColor=none;fillColor=none;align=left;verticalAlign=middle;spacingLeft=4;spacingRight=4;overflow=hidden;points=[[0,0.5],[1,0.5]];portConstraint=eastwest;rotatable=0;whiteSpace=wrap;html=1;" parent="yGFAPYOFmnMAALgUmyOV-14" vertex="1">
          <mxGeometry y="60" width="140" height="30" as="geometry" />
        </mxCell>
        <mxCell id="yGFAPYOFmnMAALgUmyOV-17" value="Author" style="text;strokeColor=none;fillColor=none;align=left;verticalAlign=middle;spacingLeft=4;spacingRight=4;overflow=hidden;points=[[0,0.5],[1,0.5]];portConstraint=eastwest;rotatable=0;whiteSpace=wrap;html=1;" parent="yGFAPYOFmnMAALgUmyOV-14" vertex="1">
          <mxGeometry y="90" width="140" height="30" as="geometry" />
        </mxCell>
        <mxCell id="yGFAPYOFmnMAALgUmyOV-34" value="Date" style="text;strokeColor=none;fillColor=none;align=left;verticalAlign=middle;spacingLeft=4;spacingRight=4;overflow=hidden;points=[[0,0.5],[1,0.5]];portConstraint=eastwest;rotatable=0;whiteSpace=wrap;html=1;" parent="yGFAPYOFmnMAALgUmyOV-14" vertex="1">
          <mxGeometry y="120" width="140" height="30" as="geometry" />
        </mxCell>
        <mxCell id="yGFAPYOFmnMAALgUmyOV-79" value="nbr titre" style="text;strokeColor=none;fillColor=none;align=left;verticalAlign=middle;spacingLeft=4;spacingRight=4;overflow=hidden;points=[[0,0.5],[1,0.5]];portConstraint=eastwest;rotatable=0;whiteSpace=wrap;html=1;" parent="yGFAPYOFmnMAALgUmyOV-14" vertex="1">
          <mxGeometry y="150" width="140" height="30" as="geometry" />
        </mxCell>
        <mxCell id="yGFAPYOFmnMAALgUmyOV-22" value="Forums" style="swimlane;fontStyle=0;childLayout=stackLayout;horizontal=1;startSize=30;horizontalStack=0;resizeParent=1;resizeParentMax=0;resizeLast=0;collapsible=1;marginBottom=0;whiteSpace=wrap;html=1;" parent="1" vertex="1">
          <mxGeometry x="360" y="-410" width="140" height="120" as="geometry" />
        </mxCell>
        <mxCell id="yGFAPYOFmnMAALgUmyOV-23" value="id" style="text;strokeColor=none;fillColor=none;align=left;verticalAlign=middle;spacingLeft=4;spacingRight=4;overflow=hidden;points=[[0,0.5],[1,0.5]];portConstraint=eastwest;rotatable=0;whiteSpace=wrap;html=1;" parent="yGFAPYOFmnMAALgUmyOV-22" vertex="1">
          <mxGeometry y="30" width="140" height="30" as="geometry" />
        </mxCell>
        <mxCell id="yGFAPYOFmnMAALgUmyOV-24" value="Name" style="text;strokeColor=none;fillColor=none;align=left;verticalAlign=middle;spacingLeft=4;spacingRight=4;overflow=hidden;points=[[0,0.5],[1,0.5]];portConstraint=eastwest;rotatable=0;whiteSpace=wrap;html=1;" parent="yGFAPYOFmnMAALgUmyOV-22" vertex="1">
          <mxGeometry y="60" width="140" height="30" as="geometry" />
        </mxCell>
        <mxCell id="yGFAPYOFmnMAALgUmyOV-47" value="Nbr sujets" style="text;strokeColor=none;fillColor=none;align=left;verticalAlign=middle;spacingLeft=4;spacingRight=4;overflow=hidden;points=[[0,0.5],[1,0.5]];portConstraint=eastwest;rotatable=0;whiteSpace=wrap;html=1;" parent="yGFAPYOFmnMAALgUmyOV-22" vertex="1">
          <mxGeometry y="90" width="140" height="30" as="geometry" />
        </mxCell>
        <mxCell id="yGFAPYOFmnMAALgUmyOV-27" value="Comptes / Profils" style="swimlane;fontStyle=0;childLayout=stackLayout;horizontal=1;startSize=30;horizontalStack=0;resizeParent=1;resizeParentMax=0;resizeLast=0;collapsible=1;marginBottom=0;whiteSpace=wrap;html=1;" parent="1" vertex="1">
          <mxGeometry x="360" y="-660" width="140" height="150" as="geometry" />
        </mxCell>
        <mxCell id="yGFAPYOFmnMAALgUmyOV-28" value="id" style="text;strokeColor=none;fillColor=none;align=left;verticalAlign=middle;spacingLeft=4;spacingRight=4;overflow=hidden;points=[[0,0.5],[1,0.5]];portConstraint=eastwest;rotatable=0;whiteSpace=wrap;html=1;" parent="yGFAPYOFmnMAALgUmyOV-27" vertex="1">
          <mxGeometry y="30" width="140" height="30" as="geometry" />
        </mxCell>
        <mxCell id="yGFAPYOFmnMAALgUmyOV-29" value="Name" style="text;strokeColor=none;fillColor=none;align=left;verticalAlign=middle;spacingLeft=4;spacingRight=4;overflow=hidden;points=[[0,0.5],[1,0.5]];portConstraint=eastwest;rotatable=0;whiteSpace=wrap;html=1;" parent="yGFAPYOFmnMAALgUmyOV-27" vertex="1">
          <mxGeometry y="60" width="140" height="30" as="geometry" />
        </mxCell>
        <mxCell id="yGFAPYOFmnMAALgUmyOV-30" value="Nickname" style="text;strokeColor=none;fillColor=none;align=left;verticalAlign=middle;spacingLeft=4;spacingRight=4;overflow=hidden;points=[[0,0.5],[1,0.5]];portConstraint=eastwest;rotatable=0;whiteSpace=wrap;html=1;" parent="yGFAPYOFmnMAALgUmyOV-27" vertex="1">
          <mxGeometry y="90" width="140" height="30" as="geometry" />
        </mxCell>
        <mxCell id="yGFAPYOFmnMAALgUmyOV-31" value="Birthday" style="text;strokeColor=none;fillColor=none;align=left;verticalAlign=middle;spacingLeft=4;spacingRight=4;overflow=hidden;points=[[0,0.5],[1,0.5]];portConstraint=eastwest;rotatable=0;whiteSpace=wrap;html=1;" parent="yGFAPYOFmnMAALgUmyOV-27" vertex="1">
          <mxGeometry y="120" width="140" height="30" as="geometry" />
        </mxCell>
        <mxCell id="yGFAPYOFmnMAALgUmyOV-37" value="" style="endArrow=none;html=1;rounded=0;entryX=1;entryY=0.115;entryDx=0;entryDy=0;exitX=-0.003;exitY=0.149;exitDx=0;exitDy=0;exitPerimeter=0;entryPerimeter=0;" parent="1" source="yGFAPYOFmnMAALgUmyOV-15" target="yGFAPYOFmnMAALgUmyOV-6" edge="1">
          <mxGeometry width="50" height="50" relative="1" as="geometry">
            <mxPoint x="220" y="-660" as="sourcePoint" />
            <mxPoint x="270" y="-710" as="targetPoint" />
          </mxGeometry>
        </mxCell>
        <mxCell id="yGFAPYOFmnMAALgUmyOV-66" value="inclus" style="edgeLabel;html=1;align=center;verticalAlign=middle;resizable=0;points=[];" parent="yGFAPYOFmnMAALgUmyOV-37" vertex="1" connectable="0">
          <mxGeometry x="0.0676" y="-3" relative="1" as="geometry">
            <mxPoint x="10" as="offset" />
          </mxGeometry>
        </mxCell>
        <mxCell id="yGFAPYOFmnMAALgUmyOV-69" value="1,n" style="edgeLabel;html=1;align=center;verticalAlign=middle;resizable=0;points=[];" parent="yGFAPYOFmnMAALgUmyOV-37" vertex="1" connectable="0">
          <mxGeometry x="0.8698" relative="1" as="geometry">
            <mxPoint as="offset" />
          </mxGeometry>
        </mxCell>
        <mxCell id="yGFAPYOFmnMAALgUmyOV-70" value="0,n" style="edgeLabel;html=1;align=center;verticalAlign=middle;resizable=0;points=[];" parent="yGFAPYOFmnMAALgUmyOV-37" vertex="1" connectable="0">
          <mxGeometry x="-0.8776" y="-1" relative="1" as="geometry">
            <mxPoint as="offset" />
          </mxGeometry>
        </mxCell>
        <mxCell id="yGFAPYOFmnMAALgUmyOV-38" value="" style="endArrow=none;html=1;rounded=0;entryX=0.499;entryY=0.998;entryDx=0;entryDy=0;entryPerimeter=0;exitX=-0.005;exitY=0.075;exitDx=0;exitDy=0;exitPerimeter=0;" parent="1" source="yGFAPYOFmnMAALgUmyOV-27" target="yGFAPYOFmnMAALgUmyOV-36" edge="1">
          <mxGeometry width="50" height="50" relative="1" as="geometry">
            <mxPoint x="199.15999999999985" y="-749.8500000000001" as="sourcePoint" />
            <mxPoint x="474" y="-730" as="targetPoint" />
            <Array as="points">
              <mxPoint x="200" y="-650" />
            </Array>
          </mxGeometry>
        </mxCell>
        <mxCell id="yGFAPYOFmnMAALgUmyOV-55" value="possède" style="edgeLabel;html=1;align=center;verticalAlign=middle;resizable=0;points=[];" parent="yGFAPYOFmnMAALgUmyOV-38" vertex="1" connectable="0">
          <mxGeometry x="0.0196" y="1" relative="1" as="geometry">
            <mxPoint y="-16" as="offset" />
          </mxGeometry>
        </mxCell>
        <mxCell id="yGFAPYOFmnMAALgUmyOV-58" value="0,n" style="edgeLabel;html=1;align=center;verticalAlign=middle;resizable=0;points=[];" parent="yGFAPYOFmnMAALgUmyOV-38" vertex="1" connectable="0">
          <mxGeometry x="0.9509" y="1" relative="1" as="geometry">
            <mxPoint y="11" as="offset" />
          </mxGeometry>
        </mxCell>
        <mxCell id="yGFAPYOFmnMAALgUmyOV-59" value="1,n" style="edgeLabel;html=1;align=center;verticalAlign=middle;resizable=0;points=[];" parent="yGFAPYOFmnMAALgUmyOV-38" vertex="1" connectable="0">
          <mxGeometry x="-0.8948" y="-1" relative="1" as="geometry">
            <mxPoint x="-11" as="offset" />
          </mxGeometry>
        </mxCell>
        <mxCell id="yGFAPYOFmnMAALgUmyOV-39" value="" style="endArrow=none;html=1;rounded=0;entryX=1.001;entryY=1.001;entryDx=0;entryDy=0;entryPerimeter=0;exitX=0.5;exitY=0;exitDx=0;exitDy=0;" parent="1" source="yGFAPYOFmnMAALgUmyOV-10" target="yGFAPYOFmnMAALgUmyOV-8" edge="1">
          <mxGeometry width="50" height="50" relative="1" as="geometry">
            <mxPoint x="570" y="-740" as="sourcePoint" />
            <mxPoint x="620" y="-790" as="targetPoint" />
            <Array as="points">
              <mxPoint x="424" y="-970" />
            </Array>
          </mxGeometry>
        </mxCell>
        <mxCell id="yGFAPYOFmnMAALgUmyOV-52" value="&lt;div&gt;contient&lt;/div&gt;" style="edgeLabel;html=1;align=center;verticalAlign=middle;resizable=0;points=[];" parent="yGFAPYOFmnMAALgUmyOV-39" vertex="1" connectable="0">
          <mxGeometry x="0.198" y="-1" relative="1" as="geometry">
            <mxPoint as="offset" />
          </mxGeometry>
        </mxCell>
        <mxCell id="yGFAPYOFmnMAALgUmyOV-53" value="0" style="edgeLabel;html=1;align=center;verticalAlign=middle;resizable=0;points=[];" parent="yGFAPYOFmnMAALgUmyOV-39" vertex="1" connectable="0">
          <mxGeometry x="0.8845" y="-2" relative="1" as="geometry">
            <mxPoint y="2" as="offset" />
          </mxGeometry>
        </mxCell>
        <mxCell id="yGFAPYOFmnMAALgUmyOV-54" value="1,n" style="edgeLabel;html=1;align=center;verticalAlign=middle;resizable=0;points=[];" parent="yGFAPYOFmnMAALgUmyOV-39" vertex="1" connectable="0">
          <mxGeometry x="-0.8587" y="1" relative="1" as="geometry">
            <mxPoint y="-5" as="offset" />
          </mxGeometry>
        </mxCell>
        <mxCell id="yGFAPYOFmnMAALgUmyOV-40" value="" style="endArrow=none;html=1;rounded=0;entryX=0.5;entryY=1;entryDx=0;entryDy=0;entryPerimeter=0;exitX=0.5;exitY=0;exitDx=0;exitDy=0;" parent="1" source="yGFAPYOFmnMAALgUmyOV-22" target="yGFAPYOFmnMAALgUmyOV-31" edge="1">
          <mxGeometry width="50" height="50" relative="1" as="geometry">
            <mxPoint x="405" y="-430" as="sourcePoint" />
            <mxPoint x="455" y="-480" as="targetPoint" />
          </mxGeometry>
        </mxCell>
        <mxCell id="yGFAPYOFmnMAALgUmyOV-75" value="consulter" style="edgeLabel;html=1;align=center;verticalAlign=middle;resizable=0;points=[];" parent="yGFAPYOFmnMAALgUmyOV-40" vertex="1" connectable="0">
          <mxGeometry x="-0.1994" relative="1" as="geometry">
            <mxPoint y="-10" as="offset" />
          </mxGeometry>
        </mxCell>
        <mxCell id="yGFAPYOFmnMAALgUmyOV-76" value="0,n" style="edgeLabel;html=1;align=center;verticalAlign=middle;resizable=0;points=[];" parent="yGFAPYOFmnMAALgUmyOV-40" vertex="1" connectable="0">
          <mxGeometry x="0.7426" relative="1" as="geometry">
            <mxPoint as="offset" />
          </mxGeometry>
        </mxCell>
        <mxCell id="yGFAPYOFmnMAALgUmyOV-77" value="1,n" style="edgeLabel;html=1;align=center;verticalAlign=middle;resizable=0;points=[];" parent="yGFAPYOFmnMAALgUmyOV-40" vertex="1" connectable="0">
          <mxGeometry x="-0.7155" relative="1" as="geometry">
            <mxPoint as="offset" />
          </mxGeometry>
        </mxCell>
        <mxCell id="yGFAPYOFmnMAALgUmyOV-41" value="Sujet" style="swimlane;fontStyle=0;childLayout=stackLayout;horizontal=1;startSize=30;horizontalStack=0;resizeParent=1;resizeParentMax=0;resizeLast=0;collapsible=1;marginBottom=0;whiteSpace=wrap;html=1;" parent="1" vertex="1">
          <mxGeometry x="360" y="-190" width="140" height="120" as="geometry" />
        </mxCell>
        <mxCell id="yGFAPYOFmnMAALgUmyOV-42" value="id" style="text;strokeColor=none;fillColor=none;align=left;verticalAlign=middle;spacingLeft=4;spacingRight=4;overflow=hidden;points=[[0,0.5],[1,0.5]];portConstraint=eastwest;rotatable=0;whiteSpace=wrap;html=1;" parent="yGFAPYOFmnMAALgUmyOV-41" vertex="1">
          <mxGeometry y="30" width="140" height="30" as="geometry" />
        </mxCell>
        <mxCell id="yGFAPYOFmnMAALgUmyOV-43" value="Name" style="text;strokeColor=none;fillColor=none;align=left;verticalAlign=middle;spacingLeft=4;spacingRight=4;overflow=hidden;points=[[0,0.5],[1,0.5]];portConstraint=eastwest;rotatable=0;whiteSpace=wrap;html=1;" parent="yGFAPYOFmnMAALgUmyOV-41" vertex="1">
          <mxGeometry y="60" width="140" height="30" as="geometry" />
        </mxCell>
        <mxCell id="yGFAPYOFmnMAALgUmyOV-44" value="Date" style="text;strokeColor=none;fillColor=none;align=left;verticalAlign=middle;spacingLeft=4;spacingRight=4;overflow=hidden;points=[[0,0.5],[1,0.5]];portConstraint=eastwest;rotatable=0;whiteSpace=wrap;html=1;" parent="yGFAPYOFmnMAALgUmyOV-41" vertex="1">
          <mxGeometry y="90" width="140" height="30" as="geometry" />
        </mxCell>
        <mxCell id="yGFAPYOFmnMAALgUmyOV-46" value="" style="endArrow=none;html=1;rounded=0;exitX=0.5;exitY=0;exitDx=0;exitDy=0;entryX=0.499;entryY=1;entryDx=0;entryDy=0;entryPerimeter=0;" parent="1" source="yGFAPYOFmnMAALgUmyOV-41" target="yGFAPYOFmnMAALgUmyOV-47" edge="1">
          <mxGeometry width="50" height="50" relative="1" as="geometry">
            <mxPoint x="380" y="-220.18" as="sourcePoint" />
            <mxPoint x="430" y="-270" as="targetPoint" />
          </mxGeometry>
        </mxCell>
        <mxCell id="yGFAPYOFmnMAALgUmyOV-71" value="contient" style="edgeLabel;html=1;align=center;verticalAlign=middle;resizable=0;points=[];" parent="yGFAPYOFmnMAALgUmyOV-46" vertex="1" connectable="0">
          <mxGeometry x="-0.1818" y="1" relative="1" as="geometry">
            <mxPoint y="-16" as="offset" />
          </mxGeometry>
        </mxCell>
        <mxCell id="yGFAPYOFmnMAALgUmyOV-72" value="1,n" style="edgeLabel;html=1;align=center;verticalAlign=middle;resizable=0;points=[];" parent="yGFAPYOFmnMAALgUmyOV-46" vertex="1" connectable="0">
          <mxGeometry x="-0.7266" relative="1" as="geometry">
            <mxPoint as="offset" />
          </mxGeometry>
        </mxCell>
        <mxCell id="yGFAPYOFmnMAALgUmyOV-73" value="1" style="edgeLabel;html=1;align=center;verticalAlign=middle;resizable=0;points=[];" parent="yGFAPYOFmnMAALgUmyOV-46" vertex="1" connectable="0">
          <mxGeometry x="0.8417" relative="1" as="geometry">
            <mxPoint as="offset" />
          </mxGeometry>
        </mxCell>
        <mxCell id="yGFAPYOFmnMAALgUmyOV-50" value="" style="endArrow=none;html=1;rounded=0;exitX=1.008;exitY=0.094;exitDx=0;exitDy=0;exitPerimeter=0;entryX=0.476;entryY=1.03;entryDx=0;entryDy=0;entryPerimeter=0;" parent="1" source="yGFAPYOFmnMAALgUmyOV-27" target="yGFAPYOFmnMAALgUmyOV-79" edge="1">
          <mxGeometry width="50" height="50" relative="1" as="geometry">
            <mxPoint x="618" y="-640" as="sourcePoint" />
            <mxPoint x="620" y="-860" as="targetPoint" />
            <Array as="points">
              <mxPoint x="618" y="-646" />
            </Array>
          </mxGeometry>
        </mxCell>
        <mxCell id="yGFAPYOFmnMAALgUmyOV-61" value="0,n" style="edgeLabel;html=1;align=center;verticalAlign=middle;resizable=0;points=[];" parent="yGFAPYOFmnMAALgUmyOV-50" vertex="1" connectable="0">
          <mxGeometry x="0.9414" y="-1" relative="1" as="geometry">
            <mxPoint y="18" as="offset" />
          </mxGeometry>
        </mxCell>
        <mxCell id="yGFAPYOFmnMAALgUmyOV-62" value="1,n" style="edgeLabel;html=1;align=center;verticalAlign=middle;resizable=0;points=[];" parent="yGFAPYOFmnMAALgUmyOV-50" vertex="1" connectable="0">
          <mxGeometry x="-0.9624" relative="1" as="geometry">
            <mxPoint x="22" as="offset" />
          </mxGeometry>
        </mxCell>
        <mxCell id="yGFAPYOFmnMAALgUmyOV-74" value="possède" style="edgeLabel;html=1;align=center;verticalAlign=middle;resizable=0;points=[];" parent="yGFAPYOFmnMAALgUmyOV-50" vertex="1" connectable="0">
          <mxGeometry x="-0.1106" y="-2" relative="1" as="geometry">
            <mxPoint as="offset" />
          </mxGeometry>
        </mxCell>
        <mxCell id="yGFAPYOFmnMAALgUmyOV-51" value="" style="endArrow=none;html=1;rounded=0;entryX=0.513;entryY=0.997;entryDx=0;entryDy=0;entryPerimeter=0;exitX=0.462;exitY=0;exitDx=0;exitDy=0;exitPerimeter=0;" parent="1" source="yGFAPYOFmnMAALgUmyOV-27" target="yGFAPYOFmnMAALgUmyOV-32" edge="1">
          <mxGeometry width="50" height="50" relative="1" as="geometry">
            <mxPoint x="380" y="-680" as="sourcePoint" />
            <mxPoint x="430" y="-730" as="targetPoint" />
          </mxGeometry>
        </mxCell>
        <mxCell id="yGFAPYOFmnMAALgUmyOV-63" value="1,n" style="edgeLabel;html=1;align=center;verticalAlign=middle;resizable=0;points=[];" parent="yGFAPYOFmnMAALgUmyOV-51" vertex="1" connectable="0">
          <mxGeometry x="-0.6914" y="1" relative="1" as="geometry">
            <mxPoint as="offset" />
          </mxGeometry>
        </mxCell>
        <mxCell id="yGFAPYOFmnMAALgUmyOV-64" value="0,n" style="edgeLabel;html=1;align=center;verticalAlign=middle;resizable=0;points=[];" parent="yGFAPYOFmnMAALgUmyOV-51" vertex="1" connectable="0">
          <mxGeometry x="0.6836" relative="1" as="geometry">
            <mxPoint as="offset" />
          </mxGeometry>
        </mxCell>
        <mxCell id="yGFAPYOFmnMAALgUmyOV-65" value="&lt;div&gt;détient&lt;/div&gt;" style="edgeLabel;html=1;align=center;verticalAlign=middle;resizable=0;points=[];" parent="yGFAPYOFmnMAALgUmyOV-51" vertex="1" connectable="0">
          <mxGeometry x="-0.1292" relative="1" as="geometry">
            <mxPoint x="-1" y="-6" as="offset" />
          </mxGeometry>
        </mxCell>
        <mxCell id="yGFAPYOFmnMAALgUmyOV-80" value="" style="rounded=0;whiteSpace=wrap;html=1;strokeColor=#b85450;opacity=10;fillColor=#33FF33;" parent="1" vertex="1">
          <mxGeometry x="40" y="-1160" width="760" height="700" as="geometry" />
        </mxCell>
        <mxCell id="yGFAPYOFmnMAALgUmyOV-81" value="" style="rounded=0;whiteSpace=wrap;html=1;fillColor=#FFFF33;strokeColor=#d6b656;opacity=10;" parent="1" vertex="1">
          <mxGeometry x="40" y="-460" width="760" height="450" as="geometry" />
        </mxCell>
        <mxCell id="yGFAPYOFmnMAALgUmyOV-83" value="&lt;font style=&quot;font-size: 26px;&quot;&gt;Fonctionnalité principale&lt;br&gt;&lt;/font&gt;" style="text;html=1;align=center;verticalAlign=middle;resizable=0;points=[];autosize=1;strokeColor=none;fillColor=none;" parent="1" vertex="1">
          <mxGeometry x="263" y="-1150" width="300" height="40" as="geometry" />
        </mxCell>
        <mxCell id="yGFAPYOFmnMAALgUmyOV-84" value="&lt;font style=&quot;font-size: 26px;&quot;&gt;Fonctionnalité secondaire&lt;br&gt;&lt;/font&gt;" style="text;html=1;align=center;verticalAlign=middle;resizable=0;points=[];autosize=1;strokeColor=none;fillColor=none;" parent="1" vertex="1">
          <mxGeometry x="263" y="-50" width="320" height="40" as="geometry" />
        </mxCell>
      </root>
    </mxGraphModel>
  </diagram>
</mxfile>
